<svg width="120" height="120" viewBox="0 0 120 120" xmlns="http://www.w3.org/2000/svg" role="img" aria-labelledby="title desc">
  <title id="title">AWARENET logo</title>
  <desc id="desc">Logo con una forma di cervello morbida con gradiente nei toni lilla e blu</desc>
  <defs>
    <linearGradient id="brainGradient" x1="20%" y1="0%" x2="80%" y2="100%">
      <stop offset="0%" stop-color="#f3d8c3" />
      <stop offset="45%" stop-color="#b5a6ee" />
      <stop offset="100%" stop-color="#5a78c9" />
    </linearGradient>
    <linearGradient id="accentStroke" x1="0%" y1="0%" x2="100%" y2="100%">
      <stop offset="0%" stop-color="#6f7bdc" />
      <stop offset="100%" stop-color="#3f4ca1" />
    </linearGradient>
  </defs>
  <g fill="none" stroke-linecap="round" stroke-linejoin="round">
    <path d="M60 14c-18.5 0-33.5 13.5-33.5 30.2v2.4C20 49.5 14 58.3 14 68.7 14 83 25.6 94.8 40.5 94.8h2.4C45.3 105 51.8 111 60 111s14.7-6 17.1-16.2h2.4C94.4 94.8 106 83 106 68.7c0-10.4-6-19.2-12.5-21.1v-3.4C93.5 28.3 78.5 14 60 14z" stroke="url(#accentStroke)" stroke-width="6" opacity="0.22" />
    <path d="M60 20c-15.4 0-28 11.2-28 25.6v2.5c-6.1 2.4-11 8.5-11 16.2 0 9.8 8.2 17.6 18.2 17.6h1.8C42.8 93.6 50.5 100 60 100s17.2-6.4 19-18.1h1.8c10 0 18.2-7.9 18.2-17.6 0-7.7-4.9-13.9-11-16.2V45.6C88 31.2 75.4 20 60 20z" fill="url(#brainGradient)" stroke="#ffffff" stroke-width="2.5" />
    <path d="M48 41.5c-2.7 0-5 2.2-5 4.9v8.3c0 2.7-2.3 4.9-5 4.9m19-29.2c-2.7 0-5 2.2-5 4.9v5.7c0 3-2.3 5.5-5.1 5.5m24.1-21.9c-2.7 0-5 2.2-5 4.9v11.8c0 3-2.3 5.4-5.1 5.4m19.1-5.4c-2.8 0-5.1 2.4-5.1 5.4v8.4c0 2.7-2.2 4.9-5 4.9" stroke="#3f4ca1" stroke-width="3" opacity="0.55" />
  </g>
</svg>
