<svg xmlns="http://www.w3.org/2000/svg" viewBox="0 0 64 64" fill="none">
  <rect width="64" height="64" rx="12" fill="url(#grad)" opacity="0.18"/>
  <path d="M26.5 12h-4a4 4 0 0 0-4 4v5.6a4 4 0 0 0 .5 2l4 8a4 4 0 0 1 0 3.4l-4 8a4 4 0 0 0-.5 2V48a4 4 0 0 0 4 4h4c12.7 0 23-10.3 23-23S39.2 12 26.5 12Z" stroke="#2E3A67" stroke-width="3" stroke-linecap="round" stroke-linejoin="round"/>
  <path d="M34 20a11 11 0 0 1 10 10" stroke="#2E3A67" stroke-width="3" stroke-linecap="round"/>
  <path d="M34 28a3 3 0 0 1 3 3" stroke="#2E3A67" stroke-width="3" stroke-linecap="round"/>
  <defs>
    <linearGradient id="grad" x1="12" y1="10" x2="50" y2="54" gradientUnits="userSpaceOnUse">
      <stop stop-color="#E5ECFF"/>
      <stop offset="1" stop-color="#C9D5FF"/>
    </linearGradient>
  </defs>
</svg>
