<svg width="120" height="120" viewBox="0 0 120 120" xmlns="http://www.w3.org/2000/svg">
  <defs>
    <linearGradient id="neuroaiGradient" x1="0%" y1="0%" x2="100%" y2="100%">
      <stop offset="0%" stop-color="#5d6fb8" />
      <stop offset="100%" stop-color="#a876c5" />
    </linearGradient>
  </defs>
  <rect width="120" height="120" rx="22" fill="url(#neuroaiGradient)" />
  <path d="M60 32c10 0 18 8 18 18 0 7-4 14-10 17l4 13a4 4 0 01-3 5h-18a4 4 0 01-3-5l4-13c-6-3-10-10-10-17 0-10 8-18 18-18z" fill="#fdfcff" opacity="0.9" />
  <circle cx="60" cy="50" r="6" fill="#5d6fb8" opacity="0.7" />
  <path d="M50 84h20a6 6 0 016 6v4H44v-4a6 6 0 016-6z" fill="#fdfcff" opacity="0.85" />
  <circle cx="84" cy="40" r="8" fill="#fdfcff" opacity="0.5" />
  <circle cx="36" cy="40" r="6" fill="#fdfcff" opacity="0.35" />
</svg>
