<svg width="120" height="120" viewBox="0 0 120 120" xmlns="http://www.w3.org/2000/svg">
  <defs>
    <linearGradient id="padovaGradient" x1="0%" y1="0%" x2="100%" y2="100%">
      <stop offset="0%" stop-color="#5f88c4" />
      <stop offset="100%" stop-color="#85c0c9" />
    </linearGradient>
  </defs>
  <rect width="120" height="120" rx="22" fill="url(#padovaGradient)" />
  <path d="M60 32c-14 0-26 10-28 24h8c2-9 10-16 20-16s18 7 20 16h8c-2-14-14-24-28-24z" fill="#fdfcff" opacity="0.9" />
  <path d="M36 68h48v20H36z" fill="#fdfcff" opacity="0.85" />
  <path d="M48 60h24a8 8 0 018 8v4H40v-4a8 8 0 018-8z" fill="#fdfcff" opacity="0.7" />
  <circle cx="42" cy="46" r="6" fill="#fdfcff" opacity="0.7" />
  <circle cx="78" cy="46" r="6" fill="#fdfcff" opacity="0.7" />
</svg>
