<svg width="28" height="28" viewBox="0 0 28 28" fill="none" xmlns="http://www.w3.org/2000/svg">
  <rect width="28" height="28" rx="6" fill="#24292F"/>
  <path d="M14 5C9.03 5 5 9.03 5 14C5 17.88 7.51 21.14 10.99 22.37C11.44 22.45 11.6 22.18 11.6 21.94C11.6 21.72 11.59 21.09 11.59 20.32C9.5 20.78 9.03 19.32 9.03 19.32C8.62 18.29 8.03 18.02 8.03 18.02C7.19 17.45 8.09 17.46 8.09 17.46C9.01 17.52 9.5 18.4 9.5 18.4C10.32 19.81 11.66 19.4 12.18 19.16C12.26 18.57 12.51 18.16 12.78 17.93C10.96 17.7 9.03 16.98 9.03 13.77C9.03 12.86 9.36 12.11 9.9 11.5C9.81 11.27 9.5 10.37 9.99 9.14C9.99 9.14 10.69 8.89 11.59 9.59C12.25 9.41 12.95 9.32 13.65 9.32C14.35 9.32 15.05 9.41 15.71 9.59C16.61 8.89 17.31 9.14 17.31 9.14C17.8 10.37 17.49 11.27 17.4 11.5C17.94 12.11 18.27 12.86 18.27 13.77C18.27 16.99 16.33 17.7 14.51 17.92C14.85 18.22 15.15 18.82 15.15 19.74C15.15 21.05 15.13 22.01 15.13 21.94C15.13 22.18 15.29 22.46 15.75 22.37C19.23 21.14 21.74 17.88 21.74 14C21.74 9.03 17.71 5 12.74 5H14Z" fill="white"/>
</svg>
