<svg width="28" height="28" viewBox="0 0 28 28" fill="none" xmlns="http://www.w3.org/2000/svg">
  <rect width="28" height="28" rx="6" fill="#0A66C2"/>
  <path d="M7.4 7.2C7.4 8.32 6.52 9.2 5.4 9.2C4.28 9.2 3.4 8.32 3.4 7.2C3.4 6.08 4.28 5.2 5.4 5.2C6.52 5.2 7.4 6.08 7.4 7.2Z" fill="white"/>
  <rect x="3.8" y="10.4" width="3.2" height="12.4" fill="white" rx="1"/>
  <path d="M10.8 10.4H14.1V12.02H14.16C14.6 11.14 15.74 10.16 17.58 10.16C20.66 10.16 21.4 11.98 21.4 15.02V22.8H18.04V15.74C18.04 14.16 17.68 13.16 16.46 13.16C15.24 13.16 14.8 14.1 14.8 15.66V22.8H10.8V10.4Z" fill="white"/>
</svg>
